<svg viewBox="0 0 960 540" xmlns="http://www.w3.org/2000/svg">
<defs><filter id="ds" x="-60%" y="-60%" width="220%" height="220%"><feDropShadow dx="0" dy="8" stdDeviation="14" flood-color="#1E2938" flood-opacity="0.14"/></filter></defs>
<rect x="0" y="0" width="960" height="540" fill="#FFFFFF"/>
<g><g transform="rotate(0 480 270)"><rect x="30" y="30" width="900" height="480" rx="64" fill="#F4F3EF" opacity="1"/></g>
<line x1="190" y1="134" x2="410" y2="220" stroke="#F2634A" stroke-width="2.5" stroke-linecap="round" opacity="0.55"/>
<line x1="780" y1="134" x2="550" y2="220" stroke="#8C6FEF" stroke-width="2.5" stroke-linecap="round" opacity="0.55"/>
<line x1="190" y1="406" x2="390" y2="250" stroke="#3D96DE" stroke-width="2.5" stroke-linecap="round" opacity="0.55"/>
<line x1="785" y1="406" x2="570" y2="250" stroke="#48AD6C" stroke-width="2.5" stroke-linecap="round" opacity="0.55"/>
<line x1="490" y1="460" x2="480" y2="330" stroke="#F0A324" stroke-width="2.5" stroke-linecap="round" opacity="0.55"/>
<rect x="390" y="220" width="180" height="110" rx="18" fill="#1E2938" opacity="1" filter="url(#ds)"/>
<text x="480" y="269" text-anchor="middle" font-family="'Poppins','Segoe UI','Helvetica Neue',Arial,sans-serif" font-size="20" font-weight="700" fill="#FFFFFF">API REST</text>
<text x="480" y="295" text-anchor="middle" font-family="'JetBrains Mono',monospace" font-size="14" font-weight="600" fill="#48AD6C">GET /users</text>
<g><rect x="90" y="90" width="200" height="44" rx="22" fill="#F2634A" opacity="1"/>
<text x="190" y="117.075" text-anchor="middle" font-family="'Poppins','Segoe UI','Helvetica Neue',Arial,sans-serif" font-size="14.5" font-weight="700" fill="#FFFFFF">P — GET endpoint</text></g>
<g><rect x="665" y="90" width="230" height="44" rx="22" fill="#8C6FEF" opacity="1"/>
<text x="780" y="117.075" text-anchor="middle" font-family="'Poppins','Segoe UI','Helvetica Neue',Arial,sans-serif" font-size="14.5" font-weight="700" fill="#FFFFFF">A — REST vs messaging</text></g>
<g><rect x="90" y="406" width="200" height="44" rx="22" fill="#3D96DE" opacity="1"/>
<text x="190" y="433.075" text-anchor="middle" font-family="'Poppins','Segoe UI','Helvetica Neue',Arial,sans-serif" font-size="14.5" font-weight="700" fill="#FFFFFF">C — HTTP flow</text></g>
<g><rect x="680" y="406" width="210" height="44" rx="22" fill="#48AD6C" opacity="1"/>
<text x="785" y="433.075" text-anchor="middle" font-family="'Poppins','Segoe UI','Helvetica Neue',Arial,sans-serif" font-size="14.5" font-weight="700" fill="#FFFFFF">E — Benchmark</text></g>
<g><rect x="390" y="460" width="200" height="44" rx="22" fill="#F0A324" opacity="1"/>
<text x="490" y="487.075" text-anchor="middle" font-family="'Poppins','Segoe UI','Helvetica Neue',Arial,sans-serif" font-size="14.5" font-weight="700" fill="#FFFFFF">R — Status codes</text></g></g>
</svg>